# xmcd
#
# Track frame offsets:
#	150
#	12647
#	32327
#	50580
#	67720
#	81398
#	101497
#	116151
#	137000
#	156709
#
# Disc length: 2382 seconds
#
# Revision: 1
# Processed by: cddbd v1.5.2PL0 Copyright (c) Steve Scherf et al.
# Submitted via: audiograbber 1.83.01
#
DISCID=85094c0a
DTITLE=Steel Vengeance - Call Of The Dogs
DYEAR=1985
DGENRE=Metal
TTITLE0=Nights Turns To Day
TTITLE1=Dreams Come Ture
TTITLE2=Time To Live, Time To Die
TTITLE3=Devil's Lair
TTITLE4=3 O'Clock In The Morning
TTITLE5=Victim Of Love
TTITLE6=Midnight Machine
TTITLE7=Queen Of The Night
TTITLE8=Will Not Be Def
TTITLE9=Our Love Was Yesterday
EXTD=
EXTT0=
EXTT1=
EXTT2=
EXTT3=
EXTT4=
EXTT5=
EXTT6=
EXTT7=
EXTT8=
EXTT9=
PLAYORDER=
